# xmcd
#
# Track frame offsets: 
#        187
#        18270
#        30552
#        49612
#        62687
#        75525
#        90837
#        100902
#        116037
#        131052
#        144807
#
# Disc length: 2193 seconds
#
# Revision: 8
# Processed by: cddbd v1.5.2PL0 Copyright (c) Steve Scherf et al.
# Submitted via: ExactAudioCopyFreeDBPlugin 1.0
#
DISCID=7e088f0b
DTITLE=Griffith, Nanci - Lone Star State Of Mind
DYEAR=1987
DGENRE=Country/Folk/Pop
TTITLE0=Lone Star State Of Mind
TTITLE1=Closed Minds - Cold Hearts
TTITLE2=From A Distance
TTITLE3=Beacon Street
TTITLE4=Nickel Dreams
TTITLE5=Sing One For Sister
TTITLE6=Ford Econoline
TTITLE7=Trouble In The Fields
TTITLE8=Love In A Memory
TTITLE9=Let It Shine On Me
TTITLE10=There's A Light Beyond These Woods (Mary Margaret)
EXTD=
EXTT0=
EXTT1=
EXTT2=
EXTT3=
EXTT4=
EXTT5=
EXTT6=
EXTT7=
EXTT8=
EXTT9=
EXTT10=
PLAYORDER=
